<?xml version="1.0" encoding="UTF-8"?>
<svg id="_Слой_1" data-name="Слой_1" xmlns="http://www.w3.org/2000/svg" version="1.1" xmlns:xlink="http://www.w3.org/1999/xlink" viewBox="0 0 155.89 153.25">
  <!-- Generator: Adobe Illustrator 29.8.6, SVG Export Plug-In . SVG Version: 2.1.1 Build 1)  -->
  <defs>
    <style>
      .st0 {
        fill: #231f20;
      }

      .st1 {
        fill: url(#_Безымянный_градиент_11);
      }
    </style>
    <linearGradient id="_Безымянный_градиент_11" data-name="Безымянный градиент 11" x1="77.87" y1="150.49" x2="77.87" y2="2.37" gradientUnits="userSpaceOnUse">
      <stop offset="0" stop-color="#1d4074"/>
      <stop offset=".22" stop-color="#234d8c"/>
      <stop offset=".47" stop-color="#28589e"/>
      <stop offset=".73" stop-color="#2b5eaa"/>
      <stop offset="1" stop-color="#2d61ae"/>
    </linearGradient>
  </defs>
  <g>
    <path class="st0" d="M66.61,110.02c3.99,0,7.41.05,10.24.15,2.83.1,4.96.15,6.38.15,7.28,0,12.96-1.86,17.05-5.58,4.09-3.72,6.14-8.48,6.14-14.29,0-2.8-.58-5.46-1.74-7.99-1.16-2.52-3.17-4.73-6.04-6.61-2.87-1.88-6.85-3.16-11.93-3.84v-.2c3.61-1.16,6.49-2.68,8.65-4.56,2.16-1.88,3.7-3.96,4.64-6.25.93-2.29,1.4-4.63,1.4-7.02,0-4.71-1.71-8.57-5.12-11.57-3.41-3-8.5-4.51-15.27-4.51-1.16,0-3.13.03-5.89.1-2.77.07-5.67.1-8.7.1-2.13,0-4.28-.03-6.47-.1-2.19-.07-3.96-.14-5.31-.2v2.05c2.19.07,3.85.32,4.98.77,1.13.44,1.88,1.26,2.27,2.46.39,1.19.58,3.06.58,5.58v50.8c0,2.46-.19,4.3-.58,5.53-.39,1.23-1.14,2.05-2.27,2.46-1.13.41-2.79.68-4.98.82v2.05c1.35-.14,3.12-.22,5.31-.26,2.19-.03,4.41-.05,6.67-.05ZM71.44,48.67c0-3.55.45-5.9,1.35-7.07.9-1.16,2.83-1.74,5.8-1.74,4.83,0,8.29,1.28,10.39,3.84,2.09,2.56,3.14,6.37,3.14,11.42,0,2.94-.39,5.68-1.16,8.24-.77,2.56-2.19,4.61-4.25,6.15-2.06,1.54-4.99,2.3-8.79,2.3h-6.47v-23.15ZM71.44,73.56h8.12c6.12,0,10.52,1.43,13.19,4.3,2.67,2.87,4.01,6.93,4.01,12.19,0,5.74-1.43,10.16-4.3,13.26-2.87,3.11-7.46,4.66-13.77,4.66-2.96,0-4.91-.53-5.85-1.59-.93-1.06-1.4-3.36-1.4-6.91v-25.91Z"/>
    <path class="st0" d="M77.87,150.49c40.9,0,74.06-33.16,74.06-74.06S118.77,2.37,77.87,2.37,3.81,35.52,3.81,76.43s33.16,74.06,74.06,74.06ZM77.87,10.62c36.35,0,65.81,29.46,65.81,65.81s-29.46,65.81-65.81,65.81S12.06,112.77,12.06,76.43,41.52,10.62,77.87,10.62Z"/>
  </g>
  <g>
    <path class="st1" d="M66.61,110.02c3.99,0,7.41.05,10.24.15,2.83.1,4.96.15,6.38.15,7.28,0,12.96-1.86,17.05-5.58,4.09-3.72,6.14-8.48,6.14-14.29,0-2.8-.58-5.46-1.74-7.99-1.16-2.52-3.17-4.73-6.04-6.61-2.87-1.88-6.85-3.16-11.93-3.84v-.2c3.61-1.16,6.49-2.68,8.65-4.56,2.16-1.88,3.7-3.96,4.64-6.25.93-2.29,1.4-4.63,1.4-7.02,0-4.71-1.71-8.57-5.12-11.57-3.41-3-8.5-4.51-15.27-4.51-1.16,0-3.13.03-5.89.1-2.77.07-5.67.1-8.7.1-2.13,0-4.28-.03-6.47-.1-2.19-.07-3.96-.14-5.31-.2v2.05c2.19.07,3.85.32,4.98.77,1.13.44,1.88,1.26,2.27,2.46.39,1.19.58,3.06.58,5.58v50.8c0,2.46-.19,4.3-.58,5.53-.39,1.23-1.14,2.05-2.27,2.46-1.13.41-2.79.68-4.98.82v2.05c1.35-.14,3.12-.22,5.31-.26,2.19-.03,4.41-.05,6.67-.05ZM71.44,48.67c0-3.55.45-5.9,1.35-7.07.9-1.16,2.83-1.74,5.8-1.74,4.83,0,8.29,1.28,10.39,3.84,2.09,2.56,3.14,6.37,3.14,11.42,0,2.94-.39,5.68-1.16,8.24-.77,2.56-2.19,4.61-4.25,6.15-2.06,1.54-4.99,2.3-8.79,2.3h-6.47v-23.15ZM71.44,73.56h8.12c6.12,0,10.52,1.43,13.19,4.3,2.67,2.87,4.01,6.93,4.01,12.19,0,5.74-1.43,10.16-4.3,13.26-2.87,3.11-7.46,4.66-13.77,4.66-2.96,0-4.91-.53-5.85-1.59-.93-1.06-1.4-3.36-1.4-6.91v-25.91Z"/>
    <path class="st1" d="M77.87,150.49c40.9,0,74.06-33.16,74.06-74.06S118.77,2.37,77.87,2.37,3.81,35.52,3.81,76.43s33.16,74.06,74.06,74.06ZM77.87,10.62c36.35,0,65.81,29.46,65.81,65.81s-29.46,65.81-65.81,65.81S12.06,112.77,12.06,76.43,41.52,10.62,77.87,10.62Z"/>
  </g>
</svg>