<?xml version="1.0" encoding="UTF-8"?>
<svg id="_Слой_1" data-name="Слой_1" xmlns="http://www.w3.org/2000/svg" version="1.1" xmlns:xlink="http://www.w3.org/1999/xlink" viewBox="0 0 453.54 237.51">
  <!-- Generator: Adobe Illustrator 29.8.6, SVG Export Plug-In . SVG Version: 2.1.1 Build 1)  -->
  <defs>
    <style>
      .st0 {
        fill: #231f20;
      }

      .st1 {
        fill: url(#_Безымянный_градиент_11);
      }
    </style>
    <linearGradient id="_Безымянный_градиент_11" data-name="Безымянный градиент 11" x1="227.36" y1="236.43" x2="227.36" y2="2.43" gradientUnits="userSpaceOnUse">
      <stop offset="0" stop-color="#1d4074"/>
      <stop offset=".22" stop-color="#234d8c"/>
      <stop offset=".47" stop-color="#28589e"/>
      <stop offset=".73" stop-color="#2b5eaa"/>
      <stop offset="1" stop-color="#2d61ae"/>
    </linearGradient>
  </defs>
  <g>
    <path class="st0" d="M105.27,144.64c12.34,11,51.52,17.71,61.71,41.86-7.51-33.54-30.72-37.96-44-42.39-15.29-5.1-21.2-13.42-20.93-29.25,0,0-9.12,18.78,3.22,29.78Z"/>
    <path class="st0" d="M14.05,176.83s15.96,9.73,33.14-3.42,32.47-24.65,54.94-21.73c-19.52-9.46-36.85-1.68-45.69,5.03-8.84,6.71-25.74,24.15-42.38,20.12Z"/>
    <path class="st0" d="M31.69,195.54c33.2-2.41,54.27-32.79,82.04-33.4,0,0-15.29-9.5-35.15,1.79-19.86,11.29-51.92,35.84-75.66,14.71,0,0,6.84,18.1,28.78,16.89Z"/>
    <path class="st0" d="M132.24,167.58c-26.01-2.68-46.55,13.55-69.36,25.62,0,0-27.37,21.04-55,2.34,6.44,12.69,30.59,21.62,54.2,9.47s41.91-28.73,65.79-29.54,39.12,22.03,39.12,22.03c0,0-8.73-27.23-34.75-29.92Z"/>
    <path class="st0" d="M102.12,192.13s-36.22,25.56-60.97,24.95c-23.19-.57-26.71-5.02-27.07-5.58.54.94,8.48,14.01,28.68,14.03,29.38.02,52.72-25.15,78.88-11.67l-19.52-21.73Z"/>
    <path class="st0" d="M111.98,188.1l17.31,20.73s3.62-19.92,26.16-11.67c-8.85-13.48-30.79-14.98-43.47-9.06Z"/>
    <path class="st0" d="M7.6,169.98c-.21-.35-.43-.69-.62-1.05-4.51-8.61-1.19-19.26,7.43-23.77,7.8-4.08,17.25-1.73,22.31,5.15-.31-.91-.66-1.81-1.12-2.69-4.68-8.93-15.71-12.38-24.64-7.7-8.93,4.68-12.38,15.71-7.7,24.64,1.12,2.14,2.61,3.95,4.34,5.42Z"/>
    <path class="st0" d="M287.73,186.49c10.2-24.15,49.37-30.86,61.71-41.86,12.34-11,3.22-29.78,3.22-29.78.27,15.83-5.63,24.15-20.93,29.25-13.29,4.43-36.49,8.85-44,42.39Z"/>
    <path class="st0" d="M407.53,173.41c17.17,13.15,33.14,3.42,33.14,3.42-16.64,4.02-33.54-13.42-42.38-20.12-8.84-6.71-26.17-14.49-45.69-5.03,22.46-2.91,37.77,8.59,54.94,21.73Z"/>
    <path class="st0" d="M376.13,163.93c-19.86-11.29-35.15-1.79-35.15-1.79,27.77.6,48.83,30.98,82.04,33.4,21.93,1.21,28.78-16.89,28.78-16.89-23.75,21.13-55.81-3.42-75.66-14.71Z"/>
    <path class="st0" d="M446.83,195.54c-27.64,18.71-55-2.34-55-2.34-22.81-12.07-43.35-28.31-69.36-25.62-26.01,2.68-34.75,29.92-34.75,29.92,0,0,15.24-22.83,39.12-22.03,23.88.8,42.18,17.39,65.79,29.54,23.61,12.15,47.76,3.22,54.2-9.47Z"/>
    <path class="st0" d="M352.59,192.13l-19.52,21.73c26.16-13.48,49.5,11.69,78.88,11.67,20.19-.01,28.13-13.09,28.68-14.03-.35.56-3.87,5.01-27.07,5.58-24.75.6-60.97-24.95-60.97-24.95Z"/>
    <path class="st0" d="M342.73,188.1c-12.68-5.93-34.61-4.43-43.47,9.06,22.54-8.25,26.16,11.67,26.16,11.67l17.31-20.73Z"/>
    <path class="st0" d="M440.31,145.16c8.61,4.51,11.94,15.15,7.43,23.77-.19.37-.41.71-.62,1.05,1.73-1.47,3.22-3.29,4.34-5.42,4.68-8.93,1.23-19.96-7.7-24.64-8.93-4.68-19.96-1.23-24.64,7.7-.46.88-.82,1.78-1.12,2.69,5.07-6.87,14.51-9.23,22.31-5.15Z"/>
    <path class="st0" d="M217.15,162.25c3.99,0,7.41.05,10.24.15,2.83.1,4.96.15,6.38.15,7.28,0,12.96-1.86,17.05-5.58,4.09-3.72,6.14-8.48,6.14-14.29,0-2.8-.58-5.46-1.74-7.99-1.16-2.52-3.17-4.73-6.04-6.61-2.87-1.88-6.85-3.16-11.93-3.84v-.2c3.61-1.16,6.49-2.68,8.65-4.56,2.16-1.88,3.7-3.96,4.64-6.25.93-2.29,1.4-4.63,1.4-7.02,0-4.71-1.71-8.57-5.12-11.57-3.41-3-8.5-4.51-15.27-4.51-1.16,0-3.13.03-5.89.1-2.77.07-5.67.1-8.7.1-2.13,0-4.28-.03-6.47-.1-2.19-.07-3.96-.14-5.31-.2v2.05c2.19.07,3.85.32,4.98.77,1.13.44,1.88,1.26,2.27,2.46.39,1.19.58,3.06.58,5.58v50.8c0,2.46-.19,4.3-.58,5.53-.39,1.23-1.14,2.05-2.27,2.46-1.13.41-2.79.68-4.98.82v2.05c1.35-.14,3.12-.22,5.31-.26,2.19-.03,4.41-.05,6.67-.05ZM221.98,100.9c0-3.55.45-5.9,1.35-7.07.9-1.16,2.83-1.74,5.8-1.74,4.83,0,8.29,1.28,10.39,3.84,2.09,2.56,3.14,6.37,3.14,11.42,0,2.94-.39,5.68-1.16,8.24-.77,2.56-2.19,4.61-4.25,6.15-2.06,1.54-4.99,2.3-8.79,2.3h-6.47v-23.15ZM221.98,125.79h8.12c6.12,0,10.52,1.43,13.19,4.3,2.67,2.87,4.01,6.93,4.01,12.19,0,5.74-1.43,10.16-4.3,13.26-2.87,3.11-7.46,4.66-13.77,4.66-2.96,0-4.91-.53-5.85-1.59-.93-1.06-1.4-3.36-1.4-6.91v-25.91Z"/>
    <path class="st0" d="M228.4,202.72c40.9,0,74.06-33.16,74.06-74.06s-33.16-74.06-74.06-74.06-74.06,33.16-74.06,74.06,33.16,74.06,74.06,74.06ZM228.4,62.85c36.35,0,65.81,29.46,65.81,65.81s-29.46,65.81-65.81,65.81-65.81-29.46-65.81-65.81,29.46-65.81,65.81-65.81Z"/>
    <path class="st0" d="M228.4,45.9c13.98,0,30.02,4.83,30.02,4.83l15.03-31.66s-3.19,3.42-6.91,3.92c-2.27.31-5.43,4.33-5.43,4.33,0,0-3.57-4.74-5.14-5.49-2.41-1.15-3.52-6.79-3.52-6.79,0,0-.2,3.62-3.62,6.24-4.02,3.02-4.43,10.06-4.43,10.06l-.77,10.93-6.48-.47s.2-4.43.2-12.88-5.43-9.86-5.43-9.86v-7.85l5.43-.2c-.6-6.64-8.96-8.59-8.96-8.59,0,0-8.36,1.95-8.96,8.59l5.43.2v7.85s-5.43,1.41-5.43,9.86.2,12.88.2,12.88l-6.48.47-.77-10.93s-.4-7.04-4.43-10.06c-3.42-2.62-3.62-6.24-3.62-6.24,0,0-1.11,5.63-3.52,6.79-1.56.75-5.14,5.49-5.14,5.49,0,0-3.16-4.02-5.43-4.33-3.72-.5-6.91-3.92-6.91-3.92l15.03,31.66s16.04-4.83,30.02-4.83ZM249.96,35.12c.59-2.53,2.67-4.23,4.61-3.78,1.94.45,3.05,2.9,2.46,5.43l-1.92,8.23-7.06-1.65,1.92-8.23ZM223.67,33.15c0-2.6,2.13-4.73,4.73-4.73,0,0,0,0,0,0s0,0,0,0c2.6,0,4.73,2.13,4.73,4.73v8.45h-9.47v-8.45ZM202.24,31.34c1.94-.45,4.02,1.25,4.61,3.78l1.92,8.23-7.06,1.65-1.92-8.23c-.59-2.53.51-4.98,2.46-5.43Z"/>
    <path class="st0" d="M283.8,204.5c-1.07-2.02-2.84-3.74-4.98-4.69-2.13-.96-4.44-1.21-6.64-1.15-2.21.09-4.34.52-6.41,1.07-4.13,1.15-8.02,2.91-11.67,4.95-3.65,2.02-7.17,4.16-10.7,6.26-7.04,4.21-14.04,8.48-21.37,11.84-3.64,1.7-7.37,3.23-11.16,4.12-.94.16-1.89.43-2.83.51l-1.4.12-.7.06-.7-.03c-.93-.06-1.89-.01-2.79-.23l-1.37-.23-1.32-.4c-.9-.21-1.71-.7-2.57-1.05-.8-.49-1.65-.9-2.42-1.5-1.59-1.07-3.08-2.42-4.66-3.76-1.55-1.35-3.24-2.74-5.15-3.88-1.89-1.19-4.14-1.93-6.37-2.25l-1.69-.15c-.56-.05-1.11.04-1.67.05-.55.04-1.12.04-1.66.13l-1.62.3c-2.14.48-4.32,1.21-6.15,2.63-1.84,1.36-3.31,3.29-4.04,5.46-.74,2.16-.83,4.49-.32,6.67.3,1.08.66,2.14,1.25,3.11.53.99,1.35,1.85,2.29,2.54,1.96,1.24,4.24,1.61,6.38,1.33,2.13-.29,4.23-1.09,5.77-2.61,1.53-1.52,2.22-3.75,1.88-5.78.14,2.07-.76,4.09-2.28,5.34-1.52,1.27-3.52,1.85-5.45,1.95-1.94.1-3.92-.41-5.38-1.48-1.38-1.11-2.19-2.96-2.52-4.79-.31-1.85-.14-3.78.55-5.47.68-1.7,1.88-3.12,3.4-4.12,1.5-1.04,3.34-1.59,5.2-1.93l1.42-.21c.47-.06.95-.03,1.42-.05.47,0,.95-.06,1.41,0l1.38.18c3.67.57,6.68,2.94,9.68,5.68,1.53,1.35,3.06,2.81,4.85,4.09.84.68,1.85,1.22,2.78,1.81,1.03.46,2,1.05,3.1,1.35,4.29,1.5,8.99,1.41,13.21.43,4.23-.97,8.16-2.56,11.97-4.31,3.8-1.78,7.46-3.76,11.05-5.84,3.59-2.08,7.13-4.21,10.61-6.41,7-4.32,13.75-9.04,21.28-11.45,1.87-.58,3.78-1.03,5.69-1.18,1.9-.13,3.78.04,5.46.67,3.31,1.25,5.71,4.99,5.06,8.6-.6,3.6-3.85,6.9-7.69,7.29-.95.13-1.96.01-2.92-.14-.96-.22-1.9-.55-2.77-1.04-1.71-1.01-3.15-2.58-3.96-4.48.63,1.96,1.92,3.73,3.64,4.98.88.61,1.86,1.04,2.89,1.37,1.04.25,2.09.46,3.2.41,2.22-.02,4.33-1,6.02-2.4,1.71-1.4,2.95-3.39,3.51-5.61.55-2.23.12-4.69-.97-6.7Z"/>
  </g>
  <g>
    <path class="st1" d="M105.27,144.64c12.34,11,51.52,17.71,61.71,41.86-7.51-33.54-30.72-37.96-44-42.39-15.29-5.1-21.2-13.42-20.93-29.25,0,0-9.12,18.78,3.22,29.78Z"/>
    <path class="st1" d="M14.05,176.83s15.96,9.73,33.14-3.42,32.47-24.65,54.94-21.73c-19.52-9.46-36.85-1.68-45.69,5.03-8.84,6.71-25.74,24.15-42.38,20.12Z"/>
    <path class="st1" d="M31.69,195.54c33.2-2.41,54.27-32.79,82.04-33.4,0,0-15.29-9.5-35.15,1.79-19.86,11.29-51.92,35.84-75.66,14.71,0,0,6.84,18.1,28.78,16.89Z"/>
    <path class="st1" d="M132.24,167.58c-26.01-2.68-46.55,13.55-69.36,25.62,0,0-27.37,21.04-55,2.34,6.44,12.69,30.59,21.62,54.2,9.47s41.91-28.73,65.79-29.54,39.12,22.03,39.12,22.03c0,0-8.73-27.23-34.75-29.92Z"/>
    <path class="st1" d="M102.12,192.13s-36.22,25.56-60.97,24.95c-23.19-.57-26.71-5.02-27.07-5.58.54.94,8.48,14.01,28.68,14.03,29.38.02,52.72-25.15,78.88-11.67l-19.52-21.73Z"/>
    <path class="st1" d="M111.98,188.1l17.31,20.73s3.62-19.92,26.16-11.67c-8.85-13.48-30.79-14.98-43.47-9.06Z"/>
    <path class="st1" d="M7.6,169.98c-.21-.35-.43-.69-.62-1.05-4.51-8.61-1.19-19.26,7.43-23.77,7.8-4.08,17.25-1.73,22.31,5.15-.31-.91-.66-1.81-1.12-2.69-4.68-8.93-15.71-12.38-24.64-7.7-8.93,4.68-12.38,15.71-7.7,24.64,1.12,2.14,2.61,3.95,4.34,5.42Z"/>
    <path class="st1" d="M287.73,186.49c10.2-24.15,49.37-30.86,61.71-41.86,12.34-11,3.22-29.78,3.22-29.78.27,15.83-5.63,24.15-20.93,29.25-13.29,4.43-36.49,8.85-44,42.39Z"/>
    <path class="st1" d="M407.53,173.41c17.17,13.15,33.14,3.42,33.14,3.42-16.64,4.02-33.54-13.42-42.38-20.12-8.84-6.71-26.17-14.49-45.69-5.03,22.46-2.91,37.77,8.59,54.94,21.73Z"/>
    <path class="st1" d="M376.13,163.93c-19.86-11.29-35.15-1.79-35.15-1.79,27.77.6,48.83,30.98,82.04,33.4,21.93,1.21,28.78-16.89,28.78-16.89-23.75,21.13-55.81-3.42-75.66-14.71Z"/>
    <path class="st1" d="M446.83,195.54c-27.64,18.71-55-2.34-55-2.34-22.81-12.07-43.35-28.31-69.36-25.62-26.01,2.68-34.75,29.92-34.75,29.92,0,0,15.24-22.83,39.12-22.03,23.88.8,42.18,17.39,65.79,29.54,23.61,12.15,47.76,3.22,54.2-9.47Z"/>
    <path class="st1" d="M352.59,192.13l-19.52,21.73c26.16-13.48,49.5,11.69,78.88,11.67,20.19-.01,28.13-13.09,28.68-14.03-.35.56-3.87,5.01-27.07,5.58-24.75.6-60.97-24.95-60.97-24.95Z"/>
    <path class="st1" d="M342.73,188.1c-12.68-5.93-34.61-4.43-43.47,9.06,22.54-8.25,26.16,11.67,26.16,11.67l17.31-20.73Z"/>
    <path class="st1" d="M440.31,145.16c8.61,4.51,11.94,15.15,7.43,23.77-.19.37-.41.71-.62,1.05,1.73-1.47,3.22-3.29,4.34-5.42,4.68-8.93,1.23-19.96-7.7-24.64-8.93-4.68-19.96-1.23-24.64,7.7-.46.88-.82,1.78-1.12,2.69,5.07-6.87,14.51-9.23,22.31-5.15Z"/>
    <path class="st1" d="M217.15,162.25c3.99,0,7.41.05,10.24.15,2.83.1,4.96.15,6.38.15,7.28,0,12.96-1.86,17.05-5.58,4.09-3.72,6.14-8.48,6.14-14.29,0-2.8-.58-5.46-1.74-7.99-1.16-2.52-3.17-4.73-6.04-6.61-2.87-1.88-6.85-3.16-11.93-3.84v-.2c3.61-1.16,6.49-2.68,8.65-4.56,2.16-1.88,3.7-3.96,4.64-6.25.93-2.29,1.4-4.63,1.4-7.02,0-4.71-1.71-8.57-5.12-11.57-3.41-3-8.5-4.51-15.27-4.51-1.16,0-3.13.03-5.89.1-2.77.07-5.67.1-8.7.1-2.13,0-4.28-.03-6.47-.1-2.19-.07-3.96-.14-5.31-.2v2.05c2.19.07,3.85.32,4.98.77,1.13.44,1.88,1.26,2.27,2.46.39,1.19.58,3.06.58,5.58v50.8c0,2.46-.19,4.3-.58,5.53-.39,1.23-1.14,2.05-2.27,2.46-1.13.41-2.79.68-4.98.82v2.05c1.35-.14,3.12-.22,5.31-.26,2.19-.03,4.41-.05,6.67-.05ZM221.98,100.9c0-3.55.45-5.9,1.35-7.07.9-1.16,2.83-1.74,5.8-1.74,4.83,0,8.29,1.28,10.39,3.84,2.09,2.56,3.14,6.37,3.14,11.42,0,2.94-.39,5.68-1.16,8.24-.77,2.56-2.19,4.61-4.25,6.15-2.06,1.54-4.99,2.3-8.79,2.3h-6.47v-23.15ZM221.98,125.79h8.12c6.12,0,10.52,1.43,13.19,4.3,2.67,2.87,4.01,6.93,4.01,12.19,0,5.74-1.43,10.16-4.3,13.26-2.87,3.11-7.46,4.66-13.77,4.66-2.96,0-4.91-.53-5.85-1.59-.93-1.06-1.4-3.36-1.4-6.91v-25.91Z"/>
    <path class="st1" d="M228.4,202.72c40.9,0,74.06-33.16,74.06-74.06s-33.16-74.06-74.06-74.06-74.06,33.16-74.06,74.06,33.16,74.06,74.06,74.06ZM228.4,62.85c36.35,0,65.81,29.46,65.81,65.81s-29.46,65.81-65.81,65.81-65.81-29.46-65.81-65.81,29.46-65.81,65.81-65.81Z"/>
    <path class="st1" d="M228.4,45.9c13.98,0,30.02,4.83,30.02,4.83l15.03-31.66s-3.19,3.42-6.91,3.92c-2.27.31-5.43,4.33-5.43,4.33,0,0-3.57-4.74-5.14-5.49-2.41-1.15-3.52-6.79-3.52-6.79,0,0-.2,3.62-3.62,6.24-4.02,3.02-4.43,10.06-4.43,10.06l-.77,10.93-6.48-.47s.2-4.43.2-12.88-5.43-9.86-5.43-9.86v-7.85l5.43-.2c-.6-6.64-8.96-8.59-8.96-8.59,0,0-8.36,1.95-8.96,8.59l5.43.2v7.85s-5.43,1.41-5.43,9.86.2,12.88.2,12.88l-6.48.47-.77-10.93s-.4-7.04-4.43-10.06c-3.42-2.62-3.62-6.24-3.62-6.24,0,0-1.11,5.63-3.52,6.79-1.56.75-5.14,5.49-5.14,5.49,0,0-3.16-4.02-5.43-4.33-3.72-.5-6.91-3.92-6.91-3.92l15.03,31.66s16.04-4.83,30.02-4.83ZM249.96,35.12c.59-2.53,2.67-4.23,4.61-3.78,1.94.45,3.05,2.9,2.46,5.43l-1.92,8.23-7.06-1.65,1.92-8.23ZM223.67,33.15c0-2.6,2.13-4.73,4.73-4.73,0,0,0,0,0,0s0,0,0,0c2.6,0,4.73,2.13,4.73,4.73v8.45h-9.47v-8.45ZM202.24,31.34c1.94-.45,4.02,1.25,4.61,3.78l1.92,8.23-7.06,1.65-1.92-8.23c-.59-2.53.51-4.98,2.46-5.43Z"/>
    <path class="st1" d="M283.8,204.5c-1.07-2.02-2.84-3.74-4.98-4.69-2.13-.96-4.44-1.21-6.64-1.15-2.21.09-4.34.52-6.41,1.07-4.13,1.15-8.02,2.91-11.67,4.95-3.65,2.02-7.17,4.16-10.7,6.26-7.04,4.21-14.04,8.48-21.37,11.84-3.64,1.7-7.37,3.23-11.16,4.12-.94.16-1.89.43-2.83.51l-1.4.12-.7.06-.7-.03c-.93-.06-1.89-.01-2.79-.23l-1.37-.23-1.32-.4c-.9-.21-1.71-.7-2.57-1.05-.8-.49-1.65-.9-2.42-1.5-1.59-1.07-3.08-2.42-4.66-3.76-1.55-1.35-3.24-2.74-5.15-3.88-1.89-1.19-4.14-1.93-6.37-2.25l-1.69-.15c-.56-.05-1.11.04-1.67.05-.55.04-1.12.04-1.66.13l-1.62.3c-2.14.48-4.32,1.21-6.15,2.63-1.84,1.36-3.31,3.29-4.04,5.46-.74,2.16-.83,4.49-.32,6.67.3,1.08.66,2.14,1.25,3.11.53.99,1.35,1.85,2.29,2.54,1.96,1.24,4.24,1.61,6.38,1.33,2.13-.29,4.23-1.09,5.77-2.61,1.53-1.52,2.22-3.75,1.88-5.78.14,2.07-.76,4.09-2.28,5.34-1.52,1.27-3.52,1.85-5.45,1.95-1.94.1-3.92-.41-5.38-1.48-1.38-1.11-2.19-2.96-2.52-4.79-.31-1.85-.14-3.78.55-5.47.68-1.7,1.88-3.12,3.4-4.12,1.5-1.04,3.34-1.59,5.2-1.93l1.42-.21c.47-.06.95-.03,1.42-.05.47,0,.95-.06,1.41,0l1.38.18c3.67.57,6.68,2.94,9.68,5.68,1.53,1.35,3.06,2.81,4.85,4.09.84.68,1.85,1.22,2.78,1.81,1.03.46,2,1.05,3.1,1.35,4.29,1.5,8.99,1.41,13.21.43,4.23-.97,8.16-2.56,11.97-4.31,3.8-1.78,7.46-3.76,11.05-5.84,3.59-2.08,7.13-4.21,10.61-6.41,7-4.32,13.75-9.04,21.28-11.45,1.87-.58,3.78-1.03,5.69-1.18,1.9-.13,3.78.04,5.46.67,3.31,1.25,5.71,4.99,5.06,8.6-.6,3.6-3.85,6.9-7.69,7.29-.95.13-1.96.01-2.92-.14-.96-.22-1.9-.55-2.77-1.04-1.71-1.01-3.15-2.58-3.96-4.48.63,1.96,1.92,3.73,3.64,4.98.88.61,1.86,1.04,2.89,1.37,1.04.25,2.09.46,3.2.41,2.22-.02,4.33-1,6.02-2.4,1.71-1.4,2.95-3.39,3.51-5.61.55-2.23.12-4.69-.97-6.7Z"/>
  </g>
</svg>